<svg width="24" height="24" viewBox="0 0 24 24" fill="none" xmlns="http://www.w3.org/2000/svg">
<path d="M12 19.2504C16.0041 19.2504 19.25 16.0045 19.25 12.0004C19.25 7.99636 16.0041 4.75043 12 4.75043C7.99594 4.75043 4.75 7.99636 4.75 12.0004C4.75 16.0045 7.99594 19.2504 12 19.2504Z" stroke="#94a3b8" stroke-width="1.5" stroke-linecap="round" stroke-linejoin="round"/>
<path d="M12 16.2504C14.3472 16.2504 16.25 14.3476 16.25 12.0004C16.25 9.65322 14.3472 7.75043 12 7.75043C9.65279 7.75043 7.75 9.65322 7.75 12.0004C7.75 14.3476 9.65279 16.2504 12 16.2504Z" stroke="#94a3b8" stroke-width="1.5" stroke-linecap="round" stroke-linejoin="round"/>
<path d="M12 13.2504C12.6904 13.2504 13.25 12.6908 13.25 12.0004C13.25 11.3101 12.6904 10.7504 12 10.7504C11.3096 10.7504 10.75 11.3101 10.75 12.0004C10.75 12.6908 11.3096 13.2504 12 13.2504Z" stroke="#94a3b8" stroke-width="1.5" stroke-linecap="round" stroke-linejoin="round"/>
</svg>
